<svg xmlns="http://www.w3.org/2000/svg" viewBox="0 0 320 80" fill="none" aria-hidden="true">
  <defs>
    <linearGradient id="g1" x1="0%" y1="0%" x2="100%" y2="0%">
      <stop offset="0%" stop-color="#22c55e"/>
      <stop offset="25%" stop-color="#ef4444"/>
      <stop offset="50%" stop-color="#3b82f6"/>
      <stop offset="75%" stop-color="#eab308"/>
      <stop offset="100%" stop-color="#22c55e"/>
    </linearGradient>
  </defs>
  <!-- Hexagon chain style: T -->
  <path d="M24 40 L32 20 L48 20 L56 40 L48 60 L32 60 Z" fill="#22c55e" stroke="#0a0a0a" stroke-width="1"/>
  <text x="40" y="46" font-family="system-ui, sans-serif" font-size="22" font-weight="700" fill="#0a0a0a" text-anchor="middle">T</text>
  <!-- A -->
  <path d="M72 40 L80 20 L96 20 L104 40 L96 60 L80 60 Z" fill="#ef4444" stroke="#0a0a0a" stroke-width="1"/>
  <text x="88" y="46" font-family="system-ui, sans-serif" font-size="22" font-weight="700" fill="#0a0a0a" text-anchor="middle">A</text>
  <!-- P -->
  <path d="M120 40 L128 20 L144 20 L152 40 L144 60 L128 60 Z" fill="#3b82f6" stroke="#0a0a0a" stroke-width="1"/>
  <text x="136" y="46" font-family="system-ui, sans-serif" font-size="22" font-weight="700" fill="#0a0a0a" text-anchor="middle">P</text>
  <!-- P -->
  <path d="M168 40 L176 20 L192 20 L200 40 L192 60 L176 60 Z" fill="#eab308" stroke="#0a0a0a" stroke-width="1"/>
  <text x="184" y="46" font-family="system-ui, sans-serif" font-size="22" font-weight="700" fill="#0a0a0a" text-anchor="middle">P</text>
  <!-- S -->
  <path d="M216 40 L224 20 L240 20 L248 40 L240 60 L224 60 Z" fill="#22c55e" stroke="#0a0a0a" stroke-width="1"/>
  <text x="232" y="46" font-family="system-ui, sans-serif" font-size="22" font-weight="700" fill="#0a0a0a" text-anchor="middle">S</text>
  <!-- Tagline -->
  <text x="160" y="72" font-family="system-ui, sans-serif" font-size="10" fill="#a1a1aa" text-anchor="middle">Texas Association of Primary Science Students</text>
</svg>
